# xmcd
#
# Track frame offsets:
#	150
#	20192
#	40730
#	57810
#	77507
#	97805
#	118980
#	138955
#	154017
#	172567
#
# Disc length: 2582 seconds
#
# Revision: 3
# Processed by: cddbd v1.5.2PL0 Copyright (c) Steve Scherf et al.
# Submitted via: EasyCDDAExtractor 15.3.0.1
#
DISCID=6f0a140a
DTITLE=Milly Quezada - Vive
DYEAR=1998
DGENRE=Latin
TTITLE0=Para Olvidarte
TTITLE1=Solo Dame Amor
TTITLE2=Para Darte Mi Vida (A Duo Con Elvis Crespo)
TTITLE3=Y Tu... Como Estas
TTITLE4=Querido Emigrante
TTITLE5=Vive
TTITLE6=Si Piensas En Mi
TTITLE7=Para Darte Mi Vida (Bachata)
TTITLE8=Sigo Enamorada
TTITLE9=Tu Me Llenas De Amor
EXTD=
EXTT0=
EXTT1=
EXTT2=
EXTT3=
EXTT4=
EXTT5=
EXTT6=
EXTT7=
EXTT8=
EXTT9=
PLAYORDER=
